<svg width="18" height="21" viewBox="0 0 18 21" fill="none" xmlns="http://www.w3.org/2000/svg">
<path d="M16 2.08105H15V0.0810547H13V2.08105H5V0.0810547H3V2.08105H2C0.89 2.08105 0.00999999 2.98105 0.00999999 4.08105L0 18.0811C0 19.1811 0.89 20.0811 2 20.0811H16C17.1 20.0811 18 19.1811 18 18.0811V4.08105C18 2.98105 17.1 2.08105 16 2.08105ZM16 18.0811H2V8.08105H16V18.0811ZM6 12.0811H4V10.0811H6V12.0811ZM10 12.0811H8V10.0811H10V12.0811ZM14 12.0811H12V10.0811H14V12.0811ZM6 16.0811H4V14.0811H6V16.0811ZM10 16.0811H8V14.0811H10V16.0811ZM14 16.0811H12V14.0811H14V16.0811Z" fill="#1C1E1B"/>
</svg>
