<svg width="26" height="26" viewBox="0 0 26 26" fill="none" xmlns="http://www.w3.org/2000/svg">
<circle cx="12.755" cy="13.081" r="12.755" fill="#2A923F"/>
<path d="M7.76946 14.4933L2.81 11.6445L12.7087 7.41605L17.7311 9.50837L22.6023 11.6069C22.6404 11.6233 22.6439 11.6761 22.6079 11.6966C22.0373 12.022 20.3342 13.041 20.0278 13.2272C20.0123 14.983 19.9795 15.8828 20.0536 15.9624C20.0536 15.9624 20.4074 16.0869 20.4434 16.4807C20.4122 16.5745 20.2835 16.6763 19.4482 16.6249C19.4511 16.345 19.3754 16.3279 19.7782 15.9085L19.7752 14.2518L19.7766 13.5251L19.7738 13.3737L17.8127 14.488C17.7652 14.6122 17.8348 14.7701 17.7762 15.9526C17.7762 16.0197 17.767 16.3555 17.1732 17.1909C16.8656 17.4793 15.9283 18.4743 13.328 18.7242C12.9194 18.753 11.7788 18.8514 9.86944 18.1874L9.71088 18.1264L9.58688 18.0736L9.49744 18.0268L9.3958 17.9658L9.31449 17.9109L9.21895 17.8459L9.13764 17.7849L9.08072 17.7463L9.02177 17.6995L8.94859 17.6426L8.87134 17.5816L8.79613 17.5206L8.72092 17.4658L8.65383 17.4088L8.60911 17.3682L8.54406 17.3153L8.49121 17.2665L8.44446 17.23L8.38754 17.1751L8.32249 17.1121L8.27167 17.0551L8.21882 16.9881L8.15987 16.9149L8.11515 16.8519L8.08465 16.8092L8.05213 16.7563L8.01351 16.6913L7.97253 16.6128L7.89539 16.4145L7.85131 16.1555L7.81825 15.9076L7.80172 15.5384L7.76946 14.4933Z" fill="white"/>
<path d="M19.1999 17.6888C19.2248 17.5252 19.3949 17.109 19.4435 17.0816C19.4813 17.0357 19.6488 17.0383 20.4498 17.0541C20.4629 17.0423 20.7259 17.7385 20.6814 17.749C20.6566 17.7974 20.5977 17.9977 20.116 18.0919C19.8451 18.1211 19.2535 18.1063 19.1999 17.6888Z" fill="white"/>
<path d="M7.76946 14.4933L2.81 11.6445L12.7087 7.41605L17.7311 9.50837L22.6023 11.6069C22.6404 11.6233 22.6439 11.6761 22.6079 11.6966C22.0373 12.022 20.3342 13.041 20.0278 13.2272C20.0123 14.983 19.9795 15.8828 20.0536 15.9624C20.0536 15.9624 20.4074 16.0869 20.4434 16.4807C20.4122 16.5745 20.2835 16.6763 19.4482 16.6249C19.4511 16.345 19.3754 16.3279 19.7782 15.9085L19.7752 14.2518L19.7766 13.5251L19.7738 13.3737L17.8127 14.488C17.7652 14.6122 17.8348 14.7701 17.7762 15.9526C17.7762 16.0197 17.767 16.3555 17.1732 17.1909C16.8656 17.4793 15.9283 18.4743 13.328 18.7242C12.9194 18.753 11.7788 18.8514 9.86944 18.1874L9.71088 18.1264L9.58688 18.0736L9.49744 18.0268L9.3958 17.9658L9.31449 17.9109L9.21895 17.8459L9.13764 17.7849L9.08072 17.7463L9.02177 17.6995L8.94859 17.6426L8.87134 17.5816L8.79613 17.5206L8.72092 17.4658L8.65383 17.4088L8.60911 17.3682L8.54406 17.3153L8.49121 17.2665L8.44446 17.23L8.38754 17.1751L8.32249 17.1121L8.27167 17.0551L8.21882 16.9881L8.15987 16.9149L8.11515 16.8519L8.08465 16.8092L8.05213 16.7563L8.01351 16.6913L7.97253 16.6128L7.89539 16.4145L7.85131 16.1555L7.81825 15.9076L7.80172 15.5384L7.76946 14.4933Z" stroke="white" stroke-opacity="0.15" stroke-width="0.1"/>
<path d="M19.1999 17.6888C19.2248 17.5252 19.3949 17.109 19.4435 17.0816C19.4813 17.0357 19.6488 17.0383 20.4498 17.0541C20.4629 17.0423 20.7259 17.7385 20.6814 17.749C20.6566 17.7974 20.5977 17.9977 20.116 18.0919C19.8451 18.1211 19.2535 18.1063 19.1999 17.6888Z" stroke="white" stroke-opacity="0.15" stroke-width="0.1"/>
<path d="M3.23626 11.65C3.26376 11.6773 5.16605 12.7605 7.46418 14.0505C9.76232 15.3459 11.8955 16.5489 12.2089 16.723C12.6157 16.9516 12.7752 17.0169 12.7586 16.9515C12.7365 16.8479 3.45599 11.6062 3.29115 11.6009C3.21972 11.601 3.20325 11.6173 3.23626 11.65Z" fill="#2A923F"/>
</svg>
